<?xml version="1.0" encoding="iso-8859-1"?>
<!-- Generator: Adobe Illustrator 19.0.0, SVG Export Plug-In . SVG Version: 6.00 Build 0)  -->
<svg version="1.1" id="Layer_1" xmlns="http://www.w3.org/2000/svg" xmlns:xlink="http://www.w3.org/1999/xlink" x="0px" y="0px"
	 viewBox="0 0 512 512" style="enable-background:new 0 0 512 512;" xml:space="preserve">
<g fill='white'>
	<g>
		<g>
		 <!-- <rect width="300" height="100" style="fill:rgb(0,0,255);stroke-width:3;stroke:rgb(0,0,0)" /> -->
		 <!-- <circle cx="50%" cy="50%" r="60%" stroke="white" stroke-width="10" fill="transparent" /> -->
			<path d="M63.281,120.93c-3.103-3.103-8.135-3.103-11.237,0c-3.103,3.103-3.103,8.135,0,11.237l32.186,32.186
				c1.551,1.551,3.585,2.328,5.619,2.328s4.068-0.776,5.619-2.328c3.103-3.103,3.103-8.135,0-11.237L63.281,120.93z"/>
			<path d="M453.281,256.97v-20.731c0-4.389-3.557-7.947-7.947-7.947s-7.946,3.558-7.946,7.947v20.731
				c0,4.389,3.557,7.947,7.946,7.947S453.281,261.359,453.281,256.97z"/>
			<path d="M127.089,376.623c-4.193,1.295-6.544,5.744-5.249,9.937c3.684,11.932,9.533,22.952,17.385,32.751
				c1.569,1.959,3.877,2.978,6.207,2.978c1.743,0,3.497-0.571,4.964-1.745c3.424-2.744,3.976-7.745,1.232-11.171
				c-6.598-8.234-11.51-17.488-14.601-27.502C135.732,377.679,131.283,375.331,127.089,376.623z"/>
			<path class='noseLine1' d="M319.508,336.758h-25.845c-4.39,0-7.946,3.558-7.946,7.946s3.557,7.946,7.946,7.946h25.845
				c4.39,0,7.947-3.558,7.947-7.946S323.896,336.758,319.508,336.758z"/>
			<path class='noseLine2' d="M417.045,345.066h-55.937c-4.39,0-7.947,3.558-7.947,7.946c0,4.389,3.557,7.946,7.947,7.946h55.937
				c4.39,0,7.946-3.558,7.946-7.946C424.991,348.624,421.435,345.066,417.045,345.066z"/>
			<path class='headShape' d="M469.028,315.345h-33.262l15.964-15.964c0.727-0.476,1.409-1.026,2.017-1.658c7.114-7.398,23.659-27.189,23.659-51.118
				c0-23.928-16.546-43.719-23.659-51.117c-2.19-2.279-5.256-3.585-8.413-3.585c-3.156,0-6.222,1.306-8.412,3.585
				c-7.114,7.399-23.66,27.19-23.66,51.117c0,21.101,12.864,38.978,20.784,47.983l-20.756,20.757h-41.859v-28.127
				c0-7.622-0.575-15.25-1.69-22.782h0.23c9.947,0,18.933-5.095,24.041-13.63c5.107-8.535,5.35-18.863,0.647-27.627
				c-45.631-85.069-120.194-151.48-209.957-187L97.679,1.741C89.04-1.677,79.345,0.012,72.374,6.147
				c-6.973,6.135-9.882,15.537-7.593,24.538c4.225,16.609,6.797,33.632,7.694,50.782C54.632,73.723,35.42,79.671,23.103,91.99
				C7.42,107.672,2.05,134.526,22.132,155.509c0.782,0.817,1.577,1.629,2.385,2.438c10.319,10.318,21.599,18.717,32.974,25.559
				c-4.857,13.534-10.845,26.712-17.851,39.251c-4.898,8.77-4.788,19.178,0.296,27.841c3.801,6.476,9.808,10.999,16.795,12.871
				v29.929c-7.984,10.748-12.678,24.019-12.678,38.233c0,17.802,7.365,34.123,19.334,45.859C73.387,454.379,138.801,512,216.748,512
				c75.785,0,140.15-54.94,152.536-128.917h99.745c18.675,0,33.869-15.194,33.869-33.869
				C502.897,330.538,487.703,315.345,469.028,315.345z M429.155,246.605c0-15.43,9.716-29.262,16.18-36.756
				c6.463,7.493,16.179,21.326,16.179,36.756c0,15.431-9.715,29.263-16.179,36.756C438.871,275.868,429.155,262.035,429.155,246.605
				z M35.758,146.713c-0.726-0.727-1.441-1.458-2.146-2.193c-13.703-14.318-9.508-31.056,0.728-41.292
				c6.685-6.685,13.936-9.426,20.817-9.426c7.741,0,15.014,3.471,20.477,8.699c0.734,0.704,1.464,1.417,2.188,2.141
				c27.229,27.229,39.783,62.894,44.843,81.729c0.572,2.131-0.573,3.568-1.093,4.088c-0.519,0.52-1.954,1.667-4.088,1.093
				C98.648,186.492,62.984,173.938,35.758,146.713z M53.642,242.555c-2.2-3.749-2.247-8.252-0.128-12.047
				c7.025-12.576,13.071-25.761,18.066-39.295c15.083,7.482,29.698,12.442,41.781,15.689c1.768,0.475,3.553,0.708,5.314,0.708
				c5.242,0,10.283-2.059,14.136-5.912c5.147-5.147,7.093-12.418,5.203-19.449c-6.685-24.882-20.603-60.493-48.954-88.844
				c-0.112-0.112-0.227-0.22-0.34-0.333c-0.169-22.387-3.033-44.675-8.537-66.306c-0.823-3.235,0.181-6.483,2.688-8.688
				c2.507-2.206,5.855-2.788,8.958-1.56l87.025,34.436c86.273,34.14,157.941,97.971,201.799,179.736
				c2.065,3.848,1.963,8.206-0.28,11.954c-2.243,3.749-6.034,5.897-10.403,5.897H64.097
				C59.749,248.541,55.842,246.304,53.642,242.555z M111.265,271.437c-3.105-2.729-7.229-3.995-11.316-3.466
				c-10.061,1.3-19.338,4.922-27.327,10.276v-13.813h75.254v24.351c0,17.79-14.084,32.346-31.686,33.119V282.32
				C116.19,278.154,114.395,274.188,111.265,271.437z M59.943,331.632c0-23.639,17.23-43.829,40.353-47.65v14.978
				c-14.72,3.581-25.683,16.867-25.683,32.673c0,15.806,10.964,29.093,25.683,32.673v14.978
				C77.173,375.461,59.943,355.272,59.943,331.632z M100.297,315.797v31.669c-5.796-2.921-9.79-8.914-9.79-15.835
				C90.507,324.711,94.501,318.719,100.297,315.797z M216.746,496.107c-64.868,0-120.059-44.471-134.88-105.956
				c5.628,2.546,11.694,4.32,18.083,5.144c0.61,0.078,1.221,0.118,1.83,0.118c3.466,0,6.845-1.261,9.486-3.583
				c3.13-2.752,4.925-6.719,4.925-10.884v-43.147c26.368-0.782,47.579-22.459,47.579-49.012v-24.351h189.889
				c0.77,4.664,1.302,9.375,1.597,14.102c-5.752-3.841-12.656-6.085-20.076-6.085c-19.988,0-36.25,16.262-36.25,36.25
				c0,2.78,1.429,5.222,3.591,6.643h-11.404c-18.675,0-33.869,15.194-33.869,33.869c0,16.174,11.398,29.728,26.583,33.071h-52.184
				c-5.224,0-10.132,2.307-13.467,6.329c-3.331,4.017-4.688,9.259-3.724,14.382c6.093,32.377,34.462,55.878,67.456,55.878
				c16.73,0,32.264-6.051,44.315-16.23C300.674,475.349,260.87,496.107,216.746,496.107z M355.537,308.702v6.643h-44.305
				c2.161-1.42,3.591-3.863,3.591-6.643c0-11.225,9.132-20.357,20.357-20.357C346.405,288.345,355.537,297.477,355.537,308.702z
				 M242.196,424.957c2.302-0.201,4.608-0.304,6.91-0.304c17.595,0,34.282,5.64,48.055,16.072
				c-4.848,1.464-9.969,2.257-15.249,2.257C266.248,442.981,251.948,436.086,242.196,424.957z M333.749,400.057
				c-2.574,13.674-10.329,25.277-20.998,32.963c-17.552-15.677-39.903-24.26-63.646-24.26c-5.361,0-10.739,0.465-16.058,1.371
				c-1.302-3.203-2.313-6.568-2.973-10.074c-0.112-0.599,0.122-1.035,0.339-1.297c0.22-0.265,0.612-0.581,1.233-0.581h100.53
				c0.621,0,1.013,0.316,1.233,0.581C333.626,399.021,333.86,399.458,333.749,400.057z M349.538,397.788
				c-0.378-3.334-1.696-6.524-3.896-9.174c-2.201-2.653-5.093-4.54-8.301-5.531h15.797
				C352.199,388.09,350.994,392.996,349.538,397.788z M469.028,367.19H291.116c-9.912,0-17.976-8.064-17.976-17.976
				s8.063-17.976,17.976-17.976h177.911c9.911,0,17.976,8.064,17.976,17.976S478.939,367.19,469.028,367.19z"/>
			<path class='leftEye' d="M238.573,308.702c0,4.389,3.558,7.946,7.946,7.946c4.389,0,7.946-3.558,7.946-7.946c0-19.988-16.262-36.25-36.25-36.25
				s-36.25,16.262-36.25,36.25c0,4.389,3.558,7.946,7.947,7.946c4.389,0,7.946-3.558,7.946-7.946
				c0-11.225,9.132-20.357,20.357-20.357C229.442,288.345,238.573,297.477,238.573,308.702z"/>
			<path d="M180.066,456.836c-20.749-7.714-39.042-22.117-51.507-40.553c-2.458-3.634-7.398-4.589-11.034-2.132
				c-3.635,2.458-4.59,7.398-2.132,11.034c14.305,21.157,35.307,37.687,59.134,46.546c0.913,0.339,1.849,0.5,2.769,0.5
				c3.225,0,6.26-1.978,7.45-5.179C186.273,462.94,184.179,458.365,180.066,456.836z"/>
			<path d="M125.594,371.51c0.18,0,0.361-0.006,0.545-0.019c4.379-0.297,7.688-4.086,7.392-8.465
				c-0.128-1.892-0.193-3.814-0.193-5.711c0-4.389-3.558-7.946-7.946-7.946c-4.389,0-7.947,3.558-7.947,7.946
				c0,2.254,0.077,4.536,0.229,6.784C117.958,368.295,121.45,371.51,125.594,371.51z"/>
		</g>
	</g>
</g>
<g stroke='white'>
</g>
<g>
</g>
<g>
</g>
<g>
</g>
<g>
</g>
<g>
</g>
<g>
</g>
<g>
</g>
<g>
</g>
<g>
</g>
<g>
</g>
<g>
</g>
<g>
</g>
<g>
</g>
<g stroke='white'>
</g>
</svg>
